<mxfile host="app.diagrams.net" agent="Mozilla/5.0 (Windows NT 10.0; Win64; x64) AppleWebKit/537.36 (KHTML, like Gecko) Chrome/130.0.0.0 Safari/537.36" version="24.7.16">
  <diagram name="Страница — 1" id="4MOa-TtzQgHEhB1913UB">
    <mxGraphModel dx="1434" dy="780" grid="1" gridSize="10" guides="1" tooltips="1" connect="1" arrows="1" fold="1" page="1" pageScale="1" pageWidth="827" pageHeight="1169" math="0" shadow="0">
      <root>
        <mxCell id="0" />
        <mxCell id="1" parent="0" />
        <mxCell id="mc_Wf4jnpTFnPdOT2jZP-3" value="" style="edgeStyle=orthogonalEdgeStyle;rounded=0;orthogonalLoop=1;jettySize=auto;html=1;" edge="1" parent="1" source="mc_Wf4jnpTFnPdOT2jZP-1" target="mc_Wf4jnpTFnPdOT2jZP-2">
          <mxGeometry relative="1" as="geometry" />
        </mxCell>
        <mxCell id="mc_Wf4jnpTFnPdOT2jZP-1" value="start" style="rounded=1;whiteSpace=wrap;html=1;" vertex="1" parent="1">
          <mxGeometry x="90" y="30" width="120" height="60" as="geometry" />
        </mxCell>
        <mxCell id="mc_Wf4jnpTFnPdOT2jZP-14" value="" style="edgeStyle=orthogonalEdgeStyle;rounded=0;orthogonalLoop=1;jettySize=auto;html=1;" edge="1" parent="1" source="mc_Wf4jnpTFnPdOT2jZP-2">
          <mxGeometry relative="1" as="geometry">
            <mxPoint x="150" y="220" as="targetPoint" />
          </mxGeometry>
        </mxCell>
        <mxCell id="mc_Wf4jnpTFnPdOT2jZP-2" value="print(&#39;Открыть машину&#39;)" style="rounded=0;whiteSpace=wrap;html=1;" vertex="1" parent="1">
          <mxGeometry x="90" y="120" width="120" height="60" as="geometry" />
        </mxCell>
        <mxCell id="mc_Wf4jnpTFnPdOT2jZP-16" value="" style="edgeStyle=orthogonalEdgeStyle;rounded=0;orthogonalLoop=1;jettySize=auto;html=1;" edge="1" parent="1" source="mc_Wf4jnpTFnPdOT2jZP-4" target="mc_Wf4jnpTFnPdOT2jZP-15">
          <mxGeometry relative="1" as="geometry" />
        </mxCell>
        <mxCell id="mc_Wf4jnpTFnPdOT2jZP-4" value="print(&#39;Выжми сцепление&#39;)" style="rounded=0;whiteSpace=wrap;html=1;" vertex="1" parent="1">
          <mxGeometry x="380" y="230" width="120" height="60" as="geometry" />
        </mxCell>
        <mxCell id="mc_Wf4jnpTFnPdOT2jZP-8" value="" style="edgeStyle=orthogonalEdgeStyle;rounded=0;orthogonalLoop=1;jettySize=auto;html=1;" edge="1" parent="1" source="mc_Wf4jnpTFnPdOT2jZP-6" target="mc_Wf4jnpTFnPdOT2jZP-4">
          <mxGeometry relative="1" as="geometry" />
        </mxCell>
        <mxCell id="mc_Wf4jnpTFnPdOT2jZP-10" value="" style="edgeStyle=orthogonalEdgeStyle;rounded=0;orthogonalLoop=1;jettySize=auto;html=1;" edge="1" parent="1" source="mc_Wf4jnpTFnPdOT2jZP-6" target="mc_Wf4jnpTFnPdOT2jZP-9">
          <mxGeometry relative="1" as="geometry" />
        </mxCell>
        <mxCell id="mc_Wf4jnpTFnPdOT2jZP-6" value="answer=input(&#39;У Вас: 1. автомат?\n2. Механика?&#39;)" style="rhombus;whiteSpace=wrap;html=1;" vertex="1" parent="1">
          <mxGeometry x="20" y="220" width="260" height="80" as="geometry" />
        </mxCell>
        <mxCell id="mc_Wf4jnpTFnPdOT2jZP-17" value="" style="edgeStyle=orthogonalEdgeStyle;rounded=0;orthogonalLoop=1;jettySize=auto;html=1;" edge="1" parent="1" source="mc_Wf4jnpTFnPdOT2jZP-9" target="mc_Wf4jnpTFnPdOT2jZP-15">
          <mxGeometry relative="1" as="geometry" />
        </mxCell>
        <mxCell id="mc_Wf4jnpTFnPdOT2jZP-9" value="print(&#39;Выжми тормоз&#39;)" style="rounded=0;whiteSpace=wrap;html=1;" vertex="1" parent="1">
          <mxGeometry x="90" y="340" width="120" height="60" as="geometry" />
        </mxCell>
        <mxCell id="mc_Wf4jnpTFnPdOT2jZP-23" value="" style="edgeStyle=orthogonalEdgeStyle;rounded=0;orthogonalLoop=1;jettySize=auto;html=1;" edge="1" parent="1" source="mc_Wf4jnpTFnPdOT2jZP-15" target="mc_Wf4jnpTFnPdOT2jZP-22">
          <mxGeometry relative="1" as="geometry" />
        </mxCell>
        <mxCell id="mc_Wf4jnpTFnPdOT2jZP-26" value="" style="edgeStyle=orthogonalEdgeStyle;rounded=0;orthogonalLoop=1;jettySize=auto;html=1;" edge="1" parent="1" source="mc_Wf4jnpTFnPdOT2jZP-15" target="mc_Wf4jnpTFnPdOT2jZP-25">
          <mxGeometry relative="1" as="geometry" />
        </mxCell>
        <mxCell id="mc_Wf4jnpTFnPdOT2jZP-15" value="ptint(&#39;Поверни ключ&#39;)" style="rounded=0;whiteSpace=wrap;html=1;" vertex="1" parent="1">
          <mxGeometry x="300" y="340" width="120" height="60" as="geometry" />
        </mxCell>
        <mxCell id="mc_Wf4jnpTFnPdOT2jZP-20" value="If answer == 1:" style="text;html=1;align=center;verticalAlign=middle;resizable=0;points=[];autosize=1;strokeColor=none;fillColor=none;" vertex="1" parent="1">
          <mxGeometry x="140" y="298" width="100" height="30" as="geometry" />
        </mxCell>
        <mxCell id="mc_Wf4jnpTFnPdOT2jZP-21" value="If answer == 2:" style="text;html=1;align=center;verticalAlign=middle;resizable=0;points=[];autosize=1;strokeColor=none;fillColor=none;" vertex="1" parent="1">
          <mxGeometry x="270" y="210" width="100" height="30" as="geometry" />
        </mxCell>
        <mxCell id="mc_Wf4jnpTFnPdOT2jZP-30" value="" style="edgeStyle=orthogonalEdgeStyle;rounded=0;orthogonalLoop=1;jettySize=auto;html=1;" edge="1" parent="1" source="mc_Wf4jnpTFnPdOT2jZP-22" target="mc_Wf4jnpTFnPdOT2jZP-28">
          <mxGeometry relative="1" as="geometry" />
        </mxCell>
        <mxCell id="mc_Wf4jnpTFnPdOT2jZP-22" value="print(&#39;Включи Drive. Отпуская тормоз&#39;)" style="rounded=0;whiteSpace=wrap;html=1;" vertex="1" parent="1">
          <mxGeometry x="300" y="460" width="120" height="60" as="geometry" />
        </mxCell>
        <mxCell id="mc_Wf4jnpTFnPdOT2jZP-24" value="If answer == 1:" style="text;html=1;align=center;verticalAlign=middle;resizable=0;points=[];autosize=1;strokeColor=none;fillColor=none;" vertex="1" parent="1">
          <mxGeometry x="250" y="420" width="100" height="30" as="geometry" />
        </mxCell>
        <mxCell id="mc_Wf4jnpTFnPdOT2jZP-29" value="" style="edgeStyle=orthogonalEdgeStyle;rounded=0;orthogonalLoop=1;jettySize=auto;html=1;" edge="1" parent="1" source="mc_Wf4jnpTFnPdOT2jZP-25" target="mc_Wf4jnpTFnPdOT2jZP-28">
          <mxGeometry relative="1" as="geometry" />
        </mxCell>
        <mxCell id="mc_Wf4jnpTFnPdOT2jZP-25" value="print(&#39;Включи первую. Отпускай сцепление&#39;)" style="rounded=0;whiteSpace=wrap;html=1;" vertex="1" parent="1">
          <mxGeometry x="530" y="340" width="120" height="60" as="geometry" />
        </mxCell>
        <mxCell id="mc_Wf4jnpTFnPdOT2jZP-27" value="If answer == 2:" style="text;html=1;align=center;verticalAlign=middle;resizable=0;points=[];autosize=1;strokeColor=none;fillColor=none;" vertex="1" parent="1">
          <mxGeometry x="430" y="340" width="100" height="30" as="geometry" />
        </mxCell>
        <mxCell id="mc_Wf4jnpTFnPdOT2jZP-28" value="print(&#39;Ты едешь&#39;)" style="rounded=1;whiteSpace=wrap;html=1;" vertex="1" parent="1">
          <mxGeometry x="490" y="450" width="120" height="60" as="geometry" />
        </mxCell>
      </root>
    </mxGraphModel>
  </diagram>
</mxfile>
